<svg xmlns="http://www.w3.org/2000/svg" version="1.1" xmlns:xlink="http://www.w3.org/1999/xlink" xmlns:svgjs="http://svgjs.dev/svgjs" width="1000" height="1000" viewBox="0 0 1000 1000"><rect width="1000" height="1000" fill="#000000"></rect><g transform="matrix(0.7,0,0,0.7,149.57575757575756,282.1265587044535)"><svg viewBox="0 0 396 247" data-background-color="#35185a" preserveAspectRatio="xMidYMid meet" height="623" width="1000" xmlns="http://www.w3.org/2000/svg" xmlns:xlink="http://www.w3.org/1999/xlink"><g id="tight-bounds" transform="matrix(1,0,0,1,0.2400000000000091,-0.09999999999999432)"><svg viewBox="0 0 395.52 247.2" height="247.2" width="395.52"><g><svg></svg></g><g><svg viewBox="0 0 395.52 247.2" height="247.2" width="395.52"><g transform="matrix(1,0,0,1,75.54432000000001,98.37012599334074)"><svg viewBox="0 0 244.43135999999996 50.45974801331853" height="50.45974801331853" width="244.43135999999996"><g><svg viewBox="0 0 244.43135999999996 50.45974801331853" height="50.45974801331853" width="244.43135999999996"><g><svg viewBox="0 0 244.43135999999996 50.45974801331853" height="50.45974801331853" width="244.43135999999996"><g><svg viewBox="0 0 244.43135999999996 50.45974801331853" height="50.45974801331853" width="244.43135999999996"><g id="textblocktransform"><svg viewBox="0 0 244.43135999999996 50.45974801331853" height="50.45974801331853" width="244.43135999999996" id="textblock"><g><svg viewBox="0 0 244.43135999999996 50.45974801331853" height="50.45974801331853" width="244.43135999999996"><g transform="matrix(1,0,0,1,0,0)"><svg width="244.43135999999996" viewBox="3.9700000286102295 -31.610000610351562 155.3300018310547 32.06999969482422" height="50.45974801331853" data-palette-color="#a437db"><path d="M3.97-1.72L3.97-28.79Q3.97-29.89 4.71-30.57L4.71-30.57Q5.4-31.26 6.21-31.38L6.21-31.38Q7.82-31.38 8.74-30.11L8.74-30.11 25.4-5 25.4-29.54Q25.4-30.46 25.75-30.8L25.75-30.8Q26.38-31.38 26.98-31.38 27.59-31.38 27.93-31.26 28.28-31.15 28.51-30.92L28.51-30.92Q29.14-30.46 29.08-29.54L29.08-29.54 29.08-2.59Q29.08-0.86 27.41-0.17L27.41-0.17Q27.01 0 26.38 0L26.38 0Q25 0 23.97-1.26L23.97-1.26 7.7-26.03 7.7-1.72Q7.7-0.92 7.24-0.57L7.24-0.57Q6.55 0 5.8 0 5.06 0 4.51-0.43 3.97-0.86 3.97-1.72L3.97-1.72ZM37.53-1.9L37.53-29.48Q37.53-30.69 38.68-31.21L38.68-31.21Q39.02-31.26 39.65-31.32 40.28-31.38 40.83-30.92 41.38-30.46 41.38-29.48L41.38-29.48 41.38-1.9Q41.38-0.52 40.17-0.11L40.17-0.11Q39.83 0 39.25 0 38.68 0 38.1-0.46 37.53-0.92 37.53-1.9L37.53-1.9ZM55.31-6.21Q56.66-4.48 58.85-3.56 61.03-2.64 64.36-2.64 67.7-2.64 71.03-3.68L71.03-3.68 71.03-13.22 64.82-13.22Q64.13-13.22 63.73-13.68 63.33-14.14 63.33-14.66L63.33-14.66Q63.33-15.29 63.67-15.69 64.02-16.09 64.82-16.09L64.82-16.09 73.27-16.09Q74.94-16.09 74.94-14.48L74.94-14.48 74.94-2.99Q74.94-1.38 73.44-1.15L73.44-1.15Q68.16 0.46 64.31 0.46 60.45 0.46 57.58-0.52 54.71-1.49 52.75-3.45L52.75-3.45Q48.5-7.7 48.5-15.63L48.5-15.63Q48.5-22.24 52.41-26.72L52.41-26.72Q56.43-31.55 64.02-31.61L64.02-31.61Q68.96-31.61 72.87-30L72.87-30Q73.67-29.54 73.67-28.82 73.67-28.1 73.3-27.59 72.93-27.07 72.29-27.07L72.29-27.07 72.06-27.07Q71.95-27.07 71.43-27.21 70.91-27.36 69.94-27.56 68.96-27.76 67.93-27.93L67.93-27.93Q65.63-28.28 64.25-28.28L64.25-28.28Q58.39-28.28 55.34-24.37L55.34-24.37Q53.96-22.59 53.36-20.2 52.75-17.82 52.75-15.29 52.75-12.76 53.36-10.34 53.96-7.93 55.31-6.21ZM103.33-17.93L103.33-29.48Q103.33-30.8 104.65-31.21L104.65-31.21Q104.99-31.26 105.51-31.32 106.03-31.38 106.66-30.92 107.29-30.46 107.29-29.48L107.29-29.48 107.29-1.9Q107.29-1.03 106.77-0.57L106.77-0.57Q106.08 0 105.31 0 104.53 0 103.93-0.46 103.33-0.92 103.33-1.9L103.33-1.9 103.33-14.66 86.83-14.66 86.83-1.9Q86.83-1.03 86.37-0.57L86.37-0.57Q85.68 0 84.88 0 84.07 0 83.5-0.46 82.92-0.92 82.92-1.9L82.92-1.9 82.92-29.48Q82.92-30.8 84.19-31.21L84.19-31.21Q84.53-31.26 85.05-31.32 85.57-31.38 86.2-30.92 86.83-30.46 86.83-29.48L86.83-29.48 86.83-17.93 103.33-17.93ZM122.23-28.1L113.67-28.1Q112.81-28.1 112.4-28.62 112-29.14 112-29.74 112-30.34 112.4-30.86 112.81-31.38 113.67-31.38L113.67-31.38 134.65-31.38Q135.45-31.38 135.85-30.86 136.25-30.34 136.25-29.74 136.25-29.14 135.82-28.62 135.39-28.1 134.65-28.1L134.65-28.1 126.14-28.1 126.14-1.9Q126.14-0.57 124.99-0.11L124.99-0.11Q124.65 0 124.07 0 123.5 0 122.86-0.46 122.23-0.92 122.23-1.9L122.23-1.9 122.23-28.1ZM149.76-28.39L149.76-28.39Q148.84-28.39 148.06-28.22 147.29-28.05 146.54-27.76L146.54-27.76Q145.22-27.36 144.21-26.78 143.21-26.21 142.63-26.21 142.06-26.21 141.65-26.61 141.25-27.01 141.25-27.53 141.25-28.05 141.65-28.51 142.06-28.97 142.75-29.43 143.44-29.89 144.3-30.29 145.16-30.69 146.19-30.92L146.19-30.92Q148.38-31.61 150.1-31.61 151.83-31.61 153.52-31.15 155.22-30.69 156.54-29.66L156.54-29.66Q159.3-27.59 159.3-24.25L159.3-24.25Q159.3-18.45 150.39-9.77L150.39-9.77Q148.67-8.1 146.86-6.24 145.04-4.37 143.67-3.22L143.67-3.22 157.69-3.22Q158.49-3.22 158.9-2.7 159.3-2.18 159.3-1.55 159.3-0.92 158.9-0.46 158.49 0 157.69 0L157.69 0 141.77 0Q140.39 0 139.73-0.57 139.07-1.15 139.07-1.9L139.07-1.9Q139.07-3.45 140.33-4.6 141.6-5.75 143.26-7.47 144.93-9.2 146.54-10.8 148.15-12.41 149.76-14.2 151.37-15.98 152.52-17.7L152.52-17.7Q155.27-21.49 155.27-23.91L155.27-23.91Q155.27-26.03 153.55-27.24L153.55-27.24Q152.06-28.39 149.76-28.39Z" opacity="1" transform="matrix(1,0,0,1,0,0)" fill="#ffffff" class="wordmark-text-0" data-fill-palette-color="primary" id="text-0"></path></svg></g></svg></g></svg></g></svg></g></svg></g></svg></g></svg></g><path d="M191.514 92.37L191.514 31.927 8.168 31.927 8.168 215.273 191.514 215.273 191.514 154.83 186.964 154.83 186.964 210.723 12.719 210.723 12.719 36.477 186.964 36.477 186.964 92.37Z" fill="#ffffff" stroke="transparent" data-fill-palette-color="primary"></path></svg></g><defs></defs></svg><rect width="395.52" height="247.2" fill="none" stroke="none" visibility="hidden"></rect></g></svg></g></svg>